<svg width="44" height="44" viewBox="0 0 44 44" fill="none" xmlns="http://www.w3.org/2000/svg">
<circle cx="22" cy="22" r="22" fill="#255E13"/>
<path fill-rule="evenodd" clip-rule="evenodd" d="M21.8517 12C24.3507 12 26.3884 14.0029 26.4156 16.4739L26.637 16.4749C29.4266 16.4749 31.6951 18.7199 31.6951 21.4799V26.996C31.6951 29.755 29.4266 32 26.637 32H17.0581C14.2695 32 12 29.755 12 26.996V21.4799C12 18.7199 14.2695 16.4749 17.0581 16.4749L17.2641 16.474L17.2706 16.2795C17.334 15.1451 17.8059 14.1043 18.6156 13.311C19.4822 12.46 20.6457 12.035 21.8517 12ZM26.637 17.9749L26.4158 17.974L26.4159 19.556C26.4159 19.97 26.0765 20.306 25.6584 20.306C25.2403 20.306 24.9009 19.97 24.9009 19.556L24.9008 17.974H18.7781L18.7782 19.556C18.7782 19.97 18.4389 20.306 18.0207 20.306C17.6026 20.306 17.2632 19.97 17.2632 19.556L17.2631 17.974L17.0581 17.9749C15.1048 17.9749 13.515 19.5469 13.515 21.4799V26.996C13.515 28.928 15.1048 30.5 17.0581 30.5H26.637C28.5903 30.5 30.1801 28.928 30.1801 26.996V21.4799C30.1801 19.5469 28.5903 17.9749 26.637 17.9749ZM21.8487 13.5C21.0295 13.528 20.2619 13.808 19.6822 14.376C19.1109 14.9368 18.7907 15.6801 18.7786 16.4739L24.8988 16.474L24.8957 16.3466C24.8027 14.7618 23.4722 13.5 21.8487 13.5Z" fill="white"/>
</svg>
