<svg width="25" height="24" viewBox="0 0 25 24" fill="none" xmlns="http://www.w3.org/2000/svg">
<g clip-path="url(#clip0)">
<path d="M24.7151 5.78655C24.5302 5.57146 24.2526 5.4466 23.9594 5.4466H6.31788L6.24561 4.81901L6.24303 4.79885C5.89727 2.30737 3.63204 0.428467 0.973959 0.428467C0.436041 0.428467 0 0.840691 0 1.34923C0 1.85776 0.436041 2.26998 0.973959 2.26998C2.65433 2.26998 4.08688 3.45542 4.31035 5.02895L5.46805 15.0837C4.45562 15.5181 3.74974 16.4829 3.74974 17.6006C3.74974 17.6083 3.74984 17.616 3.75003 17.6236C3.74984 17.6313 3.74974 17.639 3.74974 17.6467C3.74974 19.1698 5.0605 20.4089 6.67162 20.4089H7.06792C6.96887 20.6835 6.91511 20.9777 6.91511 21.2837C6.91511 22.7814 8.204 23.9999 9.78829 23.9999C11.3726 23.9999 12.6615 22.7814 12.6615 21.2837C12.6615 20.9777 12.6077 20.6835 12.5087 20.4089H16.7102C16.6111 20.6835 16.5574 20.9777 16.5574 21.2837C16.5574 22.7814 17.8462 23.9999 19.4305 23.9999C21.0148 23.9999 22.3037 22.7814 22.3037 21.2837C22.3037 19.7859 21.0148 18.5674 19.4305 18.5674H6.67162C6.13458 18.5674 5.69766 18.1544 5.69766 17.6467C5.69766 17.639 5.69756 17.6313 5.69737 17.6236C5.69756 17.616 5.69766 17.6083 5.69766 17.6006C5.69766 17.0929 6.13458 16.6799 6.67162 16.6799H19.1057C20.8346 16.6799 22.4213 15.6686 23.1479 14.1035C23.3641 13.6379 23.1401 13.0947 22.6476 12.8903C22.155 12.6859 21.5805 12.8977 21.3643 13.3633C20.9547 14.2456 20.047 14.8383 19.1057 14.8383H7.39921L6.52991 7.28812H22.7613L22.2848 9.44804C22.175 9.94584 22.5128 10.4336 23.0393 10.5374C23.1064 10.5506 23.1733 10.557 23.2392 10.557C23.6907 10.557 24.0958 10.2585 24.1916 9.82407L24.9128 6.55538C24.9727 6.28403 24.9001 6.00164 24.7151 5.78655ZM19.4305 20.4089C19.9407 20.4089 20.3557 20.8013 20.3557 21.2837C20.3557 21.766 19.9407 22.1584 19.4305 22.1584C18.9203 22.1584 18.5052 21.766 18.5052 21.2837C18.5052 20.8013 18.9203 20.4089 19.4305 20.4089ZM9.78829 20.4089C10.2985 20.4089 10.7135 20.8014 10.7135 21.2837C10.7135 21.766 10.2985 22.1584 9.78829 22.1584C9.27808 22.1584 8.86303 21.766 8.86303 21.2837C8.86303 20.8013 9.27808 20.4089 9.78829 20.4089Z" fill="#255E13"/>
</g>
<defs>
<clipPath id="clip0">
<rect width="24.9333" height="23.5714" fill="white" transform="translate(0 0.428467)"/>
</clipPath>
</defs>
</svg>
