<svg width="28" height="27" viewBox="0 0 28 27" fill="none" xmlns="http://www.w3.org/2000/svg">
<path d="M17.1179 0.391031C10.0425 -1.37784 3.26182 3.04433 1.19814 9.82499C0.903327 10.7094 0.90332 11.5939 0.90332 12.4783V12.7731C0.90332 13.0679 0.90332 13.3627 0.90332 13.6575C0.90332 13.9523 0.90332 14.2472 0.90332 14.542C1.19813 17.7849 2.67219 20.4382 5.03068 22.7967C7.09436 24.5656 9.45284 25.7448 12.1061 26.0396C12.401 26.0396 12.9906 26.0396 13.2854 26.0396H13.5802C13.875 26.0396 14.1698 26.0396 14.4646 26.0396C14.7595 26.0396 15.0543 26.0396 15.6439 26.0396C18.0024 25.7448 20.3609 24.8604 22.4245 23.3863C25.0778 21.3226 26.8467 18.3745 27.4363 15.1316C28.3208 8.64575 23.8986 2.1599 17.1179 0.391031ZM6.50474 8.05612C9.15804 8.05612 11.8113 8.05612 14.1698 8.05612C16.5283 8.05612 19.1816 8.05612 21.5401 8.05612H21.8349C22.1297 8.05612 22.1297 8.35093 22.1297 8.35093C22.1297 8.64575 21.8349 8.94056 21.5401 8.94056C19.4764 10.1198 17.1179 11.299 15.0543 12.4783C14.4646 12.7731 13.875 12.7731 13.2854 12.4783C11.2217 11.299 8.86322 10.1198 6.79954 8.94056C6.50473 8.94056 6.50473 8.64575 6.20992 8.35093C5.91511 8.35093 6.20993 8.05612 6.50474 8.05612ZM22.1297 17.7849C22.1297 18.3745 21.8349 18.6693 21.2453 18.6693C18.8868 18.6693 16.5283 18.6693 14.1698 18.6693C11.8113 18.6693 9.45285 18.6693 7.09436 18.6693C6.50474 18.6693 5.91511 18.3745 5.91511 17.7849C5.91511 15.7212 5.91511 13.3627 5.91511 11.299C5.91511 10.7094 5.91511 10.7094 6.50474 11.0042C8.56842 12.1835 10.9269 13.3627 12.9906 14.542C13.5802 14.8368 14.1698 14.8368 14.7594 14.542C16.8231 13.3627 19.1816 12.1835 21.2453 11.0042C21.8349 10.7094 21.8349 10.7094 21.8349 11.299C22.1297 13.3627 22.1297 15.4264 22.1297 17.7849Z" fill="white"/>
</svg>
