<svg width="28" height="27" viewBox="0 0 28 27" fill="none" xmlns="http://www.w3.org/2000/svg">
<path d="M12.9861 0C13.5757 0 14.1653 0 14.4601 0C14.4601 0 14.4601 0 14.7549 0C16.8186 0 18.8823 0.884434 20.6512 1.76887C24.1889 3.83255 26.2526 6.78066 26.8422 10.908C26.8422 11.4976 26.8422 11.7924 27.137 12.3821C27.137 12.9717 27.137 13.5613 27.137 13.8561C27.137 14.1509 27.137 14.1509 27.137 14.4458C26.8422 17.3939 25.663 19.7524 23.8941 21.816C21.8304 24.1745 19.1771 25.3538 16.229 25.9434C15.6394 25.9434 15.3446 25.9434 14.7549 26.2382C14.1653 26.2382 13.5757 26.2382 13.2809 26.2382C13.2809 26.2382 13.2809 26.2382 12.9861 26.2382C10.9224 26.2382 8.85872 25.3538 7.08985 24.4693C3.55212 22.4057 1.48844 19.4575 0.898813 15.3302C0.898813 14.7406 0.898815 14.4458 0.604004 13.8561C0.604004 13.2665 0.604004 12.6769 0.604004 12.3821C0.604004 12.0873 0.604004 12.0873 0.604004 11.7924C0.898815 8.84434 2.07806 6.48585 3.84693 4.42217C5.9106 2.06368 8.56391 0.884434 11.512 0.294811C12.1016 0 12.3965 0 12.9861 0ZM17.1134 13.8561C17.1134 12.9717 17.4082 12.0873 17.4082 11.2028C16.5238 11.2028 15.6394 11.2028 15.0498 11.2028C15.0498 10.6132 15.0498 10.0236 15.0498 9.43396C15.0498 9.13915 15.3446 8.84434 15.6394 8.84434C15.9342 8.84434 16.229 8.84434 16.5238 8.84434C16.8186 8.84434 17.1134 8.84434 17.4082 8.84434C17.4082 7.9599 17.4082 7.07547 17.4082 6.19104C16.229 6.19104 15.3446 6.19104 14.4601 6.19104C13.2809 6.19104 12.6913 7.07547 12.1016 7.9599C11.8068 8.54953 11.8068 9.13915 11.8068 9.72877C11.8068 10.0236 11.8068 10.6132 11.8068 10.908C11.2172 10.908 10.9224 10.908 10.3328 10.908C10.3328 11.7925 10.3328 12.6769 10.3328 13.5613C10.9224 13.5613 11.2172 13.5613 11.8068 13.5613C11.8068 16.2146 11.8068 18.5731 11.8068 21.2264C12.9861 21.2264 13.8705 21.2264 15.0498 21.2264C15.0498 18.5731 15.0498 16.2146 15.0498 13.5613C15.6394 13.8561 16.5238 13.8561 17.1134 13.8561Z" fill="white"/>
</svg>
