<svg width="87" height="695" viewBox="0 0 87 695" fill="none" xmlns="http://www.w3.org/2000/svg">
<path d="M85.4141 694.666L85.4141 677.757L1.10888 677.757L1.10888 694.666L85.4141 694.666ZM85.4141 642.933L85.4141 626.024L30.5795 626.024L85.4141 603.317L85.4141 590.514L30.5795 567.928L85.4141 567.928L85.4141 551.019L1.10887 551.019L1.10888 570.102L63.7942 596.916L1.10888 623.729L1.10888 642.933L85.4141 642.933ZM39.3965 499.274L14.8779 499.274L14.8779 485.868C14.8779 476.326 19.4676 472.099 27.1976 472.099C34.686 472.099 39.3965 476.326 39.3965 485.868L39.3965 499.274ZM27.1976 454.706C12.5831 454.706 1.10887 464.852 1.10887 485.143L1.10887 516.184L85.4141 516.184L85.4141 499.274L53.0447 499.274L53.0447 485.143C53.0447 463.402 40.0004 454.706 27.1976 454.706ZM0.98808 375.667L0.988083 424.584L85.4141 424.584L85.414 375.667L71.645 375.667L71.645 407.674L49.3005 407.674L49.3005 379.291L35.8938 379.291L35.8938 407.674L14.7571 407.674L14.7571 375.667L0.98808 375.667ZM27.3184 297.495C34.9276 297.495 39.8796 301.722 39.8796 311.143L39.8796 325.274L15.1195 325.274L15.1195 311.143C15.1195 301.722 19.8299 297.495 27.3184 297.495ZM1.10887 342.184L85.414 342.184L85.414 325.274L52.5616 325.274L52.5616 317.303L85.414 298.702L85.414 279.136L51.233 299.306C47.6096 285.779 37.2224 280.102 26.956 280.102C12.8246 280.102 1.10886 290.248 1.10886 310.539L1.10887 342.184ZM85.414 246.691L85.414 229.782L1.10886 229.782L1.10886 246.691L85.414 246.691ZM53.1655 195.2C75.3892 195.2 86.2595 179.981 86.2595 161.502C86.2595 143.022 75.3892 127.079 53.1655 127.079L1.10886 127.079L1.10886 144.109L53.2863 144.109C64.8813 144.109 70.9203 150.39 70.9203 161.26C70.9203 172.01 64.8813 178.29 53.2863 178.29L1.10886 178.29L1.10886 195.2L53.1655 195.2ZM85.414 92.6244L85.414 75.7151L30.5794 75.7151L85.414 53.0082L85.414 40.2054L30.5794 17.6194L85.414 17.6194L85.414 0.710023L1.10885 0.710026L1.10885 19.7934L63.7942 46.6068L1.10885 73.4202L1.10885 92.6244L85.414 92.6244Z" fill="#F4F8ED"/>
</svg>
