<svg width="27" height="26" viewBox="0 0 27 26" fill="none" xmlns="http://www.w3.org/2000/svg">
<path d="M12.1835 0C12.8527 0 13.5344 0 14.2036 0C14.3424 0.037876 14.4813 0.0883773 14.6202 0.101003C21.9681 0.921649 27.1698 7.70145 26.0335 14.961C25.074 21.0969 19.9986 25.6547 13.7743 25.9829C7.71415 26.2986 2.159 22.208 0.618714 16.2362C0.429334 15.466 0.340957 14.6706 0.189453 13.8879C0.189453 13.2945 0.189453 12.7137 0.189453 12.1203C0.227329 11.9436 0.290456 11.7542 0.303081 11.5774C0.84597 6.19904 4.92395 1.57817 10.214 0.37876C10.8705 0.227256 11.527 0.126253 12.1835 0ZM11.4891 10.1255C11.4891 12.8905 11.4891 15.5923 11.4891 18.3067C12.537 18.3067 13.5344 18.3067 14.6076 18.3067C14.6076 17.0189 14.595 15.7564 14.6202 14.5065C14.6328 14.0646 14.6833 13.6227 14.797 13.2061C14.9611 12.638 15.5166 12.3223 16.0721 12.4107C16.6655 12.4991 16.9433 12.9031 16.9811 13.4586C17.019 13.9131 16.9938 14.3802 16.9938 14.8474C16.9938 15.9963 16.9938 17.1452 16.9938 18.3067C18.0922 18.3067 19.1022 18.3067 20.1375 18.3067C20.1375 16.2993 20.188 14.355 20.1248 12.3981C20.087 11.1482 19.3673 10.3023 18.2816 10.0498C17.0569 9.772 15.8954 9.94876 14.9485 10.8704C14.8096 11.0093 14.6581 11.1355 14.4435 11.3375C14.4182 10.8704 14.393 10.5043 14.3803 10.1255C13.3703 10.1255 12.4486 10.1255 11.4891 10.1255ZM9.39332 10.1634C8.32017 10.1634 7.29751 10.1634 6.28749 10.1634C6.28749 12.9031 6.28749 15.5923 6.28749 18.3067C7.33539 18.3067 8.34542 18.3067 9.39332 18.3067C9.39332 15.567 9.39332 12.8778 9.39332 10.1634ZM6.23699 7.33532C6.23699 8.14334 6.95663 8.79985 7.81515 8.79985C8.6863 8.79985 9.40594 8.13071 9.40594 7.33532C9.40594 6.52729 8.71155 5.8834 7.81515 5.8834C6.91875 5.8834 6.23699 6.51467 6.23699 7.33532Z" fill="white"/>
</svg>
