<svg width="30" height="30" viewBox="0 0 30 30" fill="none" xmlns="http://www.w3.org/2000/svg">
<path fill-rule="evenodd" clip-rule="evenodd" d="M14.3515 8.72266C17.7438 8.72266 20.5032 11.3313 20.5032 14.5383C20.5032 16.0514 19.889 17.4313 18.8838 18.467L20.8616 20.3329C21.0467 20.5078 21.0473 20.7909 20.8622 20.9659C20.77 21.0543 20.6481 21.0979 20.5268 21.0979C20.4061 21.0979 20.2848 21.0543 20.192 20.9671L18.1904 19.0801C17.1374 19.8773 15.8024 20.3545 14.3515 20.3545C10.9592 20.3545 8.19922 17.7453 8.19922 14.5383C8.19922 11.3313 10.9592 8.72266 14.3515 8.72266ZM14.3515 9.61847C11.4816 9.61847 9.14679 11.8252 9.14679 14.5383C9.14679 17.2514 11.4816 19.4587 14.3515 19.4587C17.2208 19.4587 19.5556 17.2514 19.5556 14.5383C19.5556 11.8252 17.2208 9.61847 14.3515 9.61847Z" fill="#255E13"/>
<path d="M29 15.1262C29 22.3535 22.7857 28.3069 15 28.3069C7.21435 28.3069 1 22.3535 1 15.1262C1 7.89892 7.21435 1.94556 15 1.94556C22.7857 1.94556 29 7.89892 29 15.1262Z" stroke="#255E13" stroke-width="2"/>
</svg>
