<svg width="36" height="37" viewBox="0 0 36 37" fill="none" xmlns="http://www.w3.org/2000/svg">
<circle cx="17.9999" cy="18.5" r="17.7744" transform="rotate(-90 17.9999 18.5)" fill="#CBDFAB"/>
<path d="M17.2262 18.9633L17.2252 18.7282C17.2252 17.751 17.2825 16.8602 17.3686 16.2795L17.4442 15.9183C17.4862 15.7271 17.5414 15.5093 17.599 15.3981C17.8098 14.9915 18.2219 14.7399 18.663 14.7399L18.7014 14.7399C18.989 14.7494 19.5931 15.0017 19.5931 15.0105C20.5652 15.4183 22.4405 16.6493 23.3066 17.5269L23.5583 17.7903C23.6242 17.8617 23.6983 17.9463 23.7443 18.0121C23.8978 18.2155 23.9746 18.4671 23.9746 18.7187C23.9746 18.9995 23.8884 19.2606 23.7254 19.4742L23.4668 19.7533L23.4089 19.8128C22.623 20.6649 20.5709 22.0582 19.4975 22.4846L19.3354 22.5467C19.1404 22.6166 18.8671 22.7 18.7014 22.7077C18.4906 22.7077 18.2893 22.6587 18.0973 22.5621C17.8576 22.4268 17.6664 22.2133 17.5606 21.9617C17.4932 21.7876 17.3875 21.2646 17.3875 21.2551C17.2905 20.7279 17.2343 19.8958 17.2262 18.9633ZM12.0229 18.7235C12.0229 18.1669 12.4698 17.7156 13.021 17.7156L15.4773 17.9328C15.9097 17.9328 16.2603 18.2868 16.2603 18.7235C16.2603 19.1609 15.9097 19.5141 15.4773 19.5141L13.021 19.7313C12.4698 19.7313 12.0229 19.2801 12.0229 18.7235Z" fill="#255E13"/>
</svg>
