<svg width="26" height="21" viewBox="0 0 26 21" fill="none" xmlns="http://www.w3.org/2000/svg">
<path d="M24.7641 0.294811C24.1745 1.47406 23.5849 2.6533 22.4057 3.24292C23.2901 3.24292 24.1745 2.94811 25.3538 2.35849C24.7641 3.24292 23.8797 4.12736 23.2901 4.71698C22.7005 5.01179 22.7005 5.3066 22.7005 5.60141C22.7005 7.37028 22.4057 9.13915 21.816 10.908C21.2264 12.6769 20.0472 14.4458 18.8679 15.9198C17.6887 17.0991 16.2146 18.2783 14.4458 19.1627C13.5613 19.7524 12.3821 20.0472 11.2028 20.342C9.72877 20.6368 8.54953 20.6368 7.37028 20.6368C6.19104 20.6368 5.01179 20.342 3.53773 20.0472C2.35849 19.7524 1.17924 19.1627 0 18.5731C2.94811 18.8679 5.3066 17.9835 7.66509 16.5094C6.48585 16.5094 5.60141 16.2146 4.71698 15.3302C3.83255 14.4457 3.24292 13.5613 2.6533 12.6769C2.94811 12.6769 3.53773 12.6769 3.83255 12.6769C4.12736 12.6769 4.42217 12.6769 5.01179 12.3821C2.35849 11.7924 1.17924 10.0236 0.884434 7.37028C1.76887 7.66509 2.35849 7.9599 3.24292 7.9599C0.884434 5.89622 0.294811 3.53773 1.76887 0.884434C4.71698 4.12736 8.25471 6.19104 12.6769 6.48585V6.19104C12.0873 4.12736 12.6769 2.6533 14.1509 1.17924C15.0354 0.589622 15.9198 0 17.0991 0C17.9835 0 19.1627 1.31791e-07 20.0472 0.589623C20.6368 0.884434 20.9316 1.17924 21.2264 1.47406H21.5212C22.7005 1.47406 23.5849 0.884434 24.7641 0.294811Z" fill="white"/>
</svg>
